<svg xmlns="http://www.w3.org/2000/svg" id="_ëîé_1" data-name="‘ëîé_1" viewBox="0 0 2706.01 1894.21"><defs><style>.cls-1{fill:#f5efd9;}.cls-10,.cls-11,.cls-12,.cls-14,.cls-15,.cls-16,.cls-17,.cls-2,.cls-5,.cls-9{fill:none;stroke-miterlimit:10;}.cls-11,.cls-14,.cls-2,.cls-9{stroke:#56303c;}.cls-11,.cls-12,.cls-14,.cls-15,.cls-16,.cls-17,.cls-2,.cls-5,.cls-9{stroke-linecap:round;}.cls-2{stroke-width:9.2px;}.cls-3{fill:#ede0c4;}.cls-4{fill:#d9af00;}.cls-12,.cls-17,.cls-5{stroke:#fff;}.cls-5{stroke-width:9.8px;}.cls-6{fill:#719da3;}.cls-7{fill:#56303c;}.cls-8{fill:#f7d0d1;}.cls-9{stroke-width:5.95px;}.cls-10{stroke:#719da3;stroke-width:2.71px;}.cls-11{stroke-width:4.87px;}.cls-12{stroke-width:4.04px;}.cls-13{fill:#b4702f;}.cls-14{stroke-width:3.25px;}.cls-15,.cls-16{stroke:#d9af00;}.cls-15{stroke-width:6.49px;}.cls-16{stroke-width:4.33px;}.cls-17{stroke-width:6.28px;}</style></defs><g id="FLOWER_PLANET"><path class="cls-1" d="M1757.14,1653.71H863.64c81-113.56,250.59-214.56,446.75-214.56S1676.18,1540.15,1757.14,1653.71Z"/><line class="cls-2" x1="1287.68" y1="1648.81" x2="1287.68" y2="847.52"/><path class="cls-3" d="M1464.38,1066.84h99.4a0,0,0,0,1,0,0V1080a168.2,168.2,0,0,1-168.2,168.2h-67.08a0,0,0,0,1,0,0v-45.46A135.89,135.89,0,0,1,1464.38,1066.84Z"/><path class="cls-2" d="M1497.21,1127.08l-147.79,101.81a142.68,142.68,0,0,0-61.74,117.5v76"/><path class="cls-3" d="M1049.33,1196.69h60.79a155.6,155.6,0,0,1,155.6,155.6v13.14a0,0,0,0,1,0,0H1175a125.7,125.7,0,0,1-125.7-125.7v-43A0,0,0,0,1,1049.33,1196.69Z" transform="translate(2315.04 2562.12) rotate(180)"/><path class="cls-2" d="M1115.34,1250.82,1225.85,1327a142.68,142.68,0,0,1,61.74,117.5v76"/><path class="cls-4" d="M1320.37,779.76h111.16a133.92,133.92,0,0,1,133.92,133.92v111.16a0,0,0,0,1,0,0H1454.29a133.92,133.92,0,0,1-133.92-133.92V779.76A0,0,0,0,1,1320.37,779.76Z"/><line class="cls-5" x1="1442.91" y1="892.99" x2="1374.02" y2="800.33"/><path class="cls-4" d="M1142.15,779.76h111.16a0,0,0,0,1,0,0V890.91a133.92,133.92,0,0,1-133.92,133.92H1008.23a0,0,0,0,1,0,0V913.68A133.92,133.92,0,0,1,1142.15,779.76Z" transform="translate(2261.54 1804.59) rotate(180)"/><line class="cls-5" x1="1202.68" y1="800.33" x2="1133.78" y2="892.99"/><path class="cls-4" d="M1008.23,240.45h111.16a133.92,133.92,0,0,1,133.92,133.92V485.53a0,0,0,0,1,0,0H1142.15a133.92,133.92,0,0,1-133.92-133.92V240.45A0,0,0,0,1,1008.23,240.45Z" transform="translate(2261.54 725.98) rotate(180)"/><line class="cls-5" x1="1189.83" y1="455.65" x2="1120.94" y2="362.99"/><path class="cls-4" d="M1454.29,240.45h111.16a0,0,0,0,1,0,0V351.61a133.92,133.92,0,0,1-133.92,133.92H1320.37a0,0,0,0,1,0,0V374.37A133.92,133.92,0,0,1,1454.29,240.45Z"/><line class="cls-5" x1="1441.51" y1="362.99" x2="1372.61" y2="455.65"/><path class="cls-4" d="M1049.25,553.15l78.6,78.6-78.6,78.6a133.92,133.92,0,0,1-189.39,0l-78.6-78.6,78.6-78.6A133.92,133.92,0,0,1,1049.25,553.15Z"/><line class="cls-5" x1="954.56" y1="631.75" x2="1118.02" y2="631.75"/><path class="cls-4" d="M1704.59,553.15l78.6,78.6-78.6,78.6a133.92,133.92,0,0,1-189.39,0l-78.6-78.6,78.6-78.6A133.92,133.92,0,0,1,1704.59,553.15Z"/><line class="cls-5" x1="1462.81" y1="631.75" x2="1626.27" y2="631.75"/><circle class="cls-6" cx="1287.68" cy="623.59" r="205.06"/><path class="cls-7" d="M1258.12,508H1236.2a14.25,14.25,0,0,0-14.14,12.49l-5.2,42a22.1,22.1,0,0,1-16.46,18.7l-45.14,11.55a19.8,19.8,0,0,0-14.87,18.39l-.55,13.94a17.48,17.48,0,0,0,14.08,17.83l12.67,2.49a15.1,15.1,0,0,1,10.87,8.63l4.23,9.38,2.9,6.45-4.88-5.06-6.75-7a15.15,15.15,0,0,0-9.42-4.56l-34-3.32a15.35,15.35,0,0,1-11.53-7.13l-32.76-52.18A205.32,205.32,0,0,1,1202.45,437l-13.79,29.76a8.5,8.5,0,0,0,8,12.07l35.95-1.14a14.29,14.29,0,0,1,9.18,3l20.3,15.73A6.46,6.46,0,0,1,1258.12,508Z"/><path class="cls-7" d="M1308.3,710.93v22.18a14.05,14.05,0,0,1-3.82,9.63L1280.64,768a12,12,0,0,1-12.25,3.25l-9.94-3a4.85,4.85,0,0,0-6.25,4.49l-.88,30.61a15.24,15.24,0,0,0,5.45,12.14L1271.86,828a204.13,204.13,0,0,1-40.57-7.24h0l-22.15-19.08a12.8,12.8,0,0,1-4.36-8.22l-3.81-33-37.82-18.91a20,20,0,0,1-11-17.85V693.25a17.64,17.64,0,0,1,7.53-14.46l20.06-14,2-1.39L1202.22,649a12.19,12.19,0,0,1,13.79-.13L1245.9,669a15,15,0,0,1,6.37,9.67l2.24,11.87a7.07,7.07,0,0,0,6.94,5.75h32.19A14.66,14.66,0,0,1,1308.3,710.93Z"/><path class="cls-7" d="M1379.45,440.16l-13.67,4.33a16.09,16.09,0,0,1-4.87.76h-29.34a13.52,13.52,0,0,0-7.68,2.39l-31.92,22a10.5,10.5,0,0,1-14.92-3.18l-7.2-11.82a13.15,13.15,0,0,1-.24-13.24l2.62-4.69a7,7,0,0,0-2.85-9.67l-11.88-6.3a207,207,0,0,1,30.18-2.21A204.09,204.09,0,0,1,1379.45,440.16Z"/><path class="cls-7" d="M1492.74,623.59a204.6,204.6,0,0,1-73.23,157.07l8.22-37L1426.65,719a16.5,16.5,0,0,0-16.48-15.77H1384a16.69,16.69,0,0,1-12.45-5.57L1355.83,680a16.72,16.72,0,0,1-4.25-11.12v-37A24,24,0,0,1,1368,609.09l60.83-20.28a17.47,17.47,0,0,1,13,.76l41.77,19.58a15.89,15.89,0,0,1,9.17,14.34Z"/></g><g id="CLOUD"><path class="cls-1" d="M988.59,573.84H623.72c0-29.28,33.23-53,74.24-53a100.66,100.66,0,0,1,26.37,3.45c13.6-18,34.47-29.58,57.87-29.58,35.14,0,64.58,26,72.28,61,13.51-8.61,35.3-15.4,59.88-15.4C955.36,540.29,988.59,559.2,988.59,573.84Z"/><path class="cls-1" d="M1876.72,455.25H1579c0-40.57,28-73.44,62.59-73.44,19.73,0,37.33,10.71,48.79,27.44a77.59,77.59,0,0,1,22.25-3.2c25.25,0,47,11.76,56.9,28.7,11.35-6.17,27.13-10.64,44.57-10.64C1848.69,424.11,1876.72,441.66,1876.72,455.25Z"/></g><g id="GIRL"><g id="HAIR"><path class="cls-7" d="M2060.28,1178.1v6.8h-6.79a20.59,20.59,0,0,1-20.59-20.59v-5.68h-44.51a39,39,0,0,1-39-39v-3.23H1939a39,39,0,0,1-39-39v-2.07h-33.52a31.92,31.92,0,0,1-31.91-31.92V1027.7a41.77,41.77,0,0,1,41.78-41.78h24.64a32.14,32.14,0,0,1,32.14,32.14v14h19.09a32.14,32.14,0,0,1,32.14,32.14v10h17.21a32.14,32.14,0,0,1,32.15,32.14v51.11h5.9A20.58,20.58,0,0,1,2060.28,1178.1Z"/><path class="cls-4" d="M2045.13,1136.36h.54a6.94,6.94,0,0,1,6.94,6.94v.54a6.94,6.94,0,0,1-6.94,6.94h-7.48a0,0,0,0,1,0,0v-7.48A6.94,6.94,0,0,1,2045.13,1136.36Z"/><path class="cls-4" d="M2020.27,1177.13h0a7.2,7.2,0,0,1-7.2-7.21h0a7.2,7.2,0,0,1,7.2-7.21h7.21v7.21A7.21,7.21,0,0,1,2020.27,1177.13Z"/></g><path id="HAND" class="cls-8" d="M1878.86,1185l-39.11,61.79-70.9,99-14.09-12.23,105-245.11c5.47-10.1,15.46-16.31,26.25-16.31,13.82,0,25.91,10.11,29.44,24.62Z"/><g id="WATERING_POT" data-name="WATERING POT"><ellipse class="cls-7" cx="1677.99" cy="1248.44" rx="14.35" ry="20.09"/><path class="cls-9" d="M1688,1248.44a24.71,24.71,0,0,1,23.07,15.87l43.72,112.2"/><path class="cls-7" d="M1859.12,1350.85v0c1.49,6.33-20.75,17-49.68,23.82s-53.59,7.25-55.08.93h0l-.06-.53-17.41-139c1.06,4.47,18.8,4.1,39.62-.81s36.86-12.54,35.8-17L1859,1350.37Z"/><path class="cls-6" d="M1812.31,1218.23c1.06,4.47-15,12.09-35.8,17s-38.56,5.28-39.62.81,15-12.09,35.8-17S1811.26,1213.75,1812.31,1218.23Z"/></g><g id="SHOES"><path class="cls-7" d="M2108.78,1650.72h-13.6l-8.5-14-8.5,14h-55.67a.85.85,0,0,1-.29-1.66L2028,1647a23.06,23.06,0,0,0,14.68-27.29l-6.06-24.46h56.43Z"/><path class="cls-10" d="M2037.68,1622.69h-7.14a7.14,7.14,0,0,1-7.14-7.14h0a7.14,7.14,0,0,1,7.14-7.15h0a7.15,7.15,0,0,1,7.14,7.15Z"/><path class="cls-10" d="M2044.64,1622.69h7.14a7.15,7.15,0,0,0,7.15-7.14h0a7.15,7.15,0,0,0-7.15-7.15h0a7.15,7.15,0,0,0-7.14,7.15Z"/><path class="cls-7" d="M1922.18,1650.72h-13.59l-3.42-14-13.58,14h-50a1.64,1.64,0,0,1-.49-3.2l1.69-.53c12.63-4,23.28-15.77,24.62-27.29l2.83-24.46h56.43Z"/><path class="cls-10" d="M1854,1608.4h0a7.14,7.14,0,0,1,7.14,7.14v7.14a0,0,0,0,1,0,0H1854a7.14,7.14,0,0,1-7.14-7.14v0a7.14,7.14,0,0,1,7.14-7.14Z"/><path class="cls-10" d="M1868.14,1622.69h7.14a7.15,7.15,0,0,0,7.15-7.14h0a7.15,7.15,0,0,0-7.15-7.15h0a7.15,7.15,0,0,0-7.14,7.15Z"/></g><g id="LEGS"><path class="cls-4" d="M2110.88,1595.24h-74.22l-66.57-199.7-28.31,199.7h-72.69l28.31-346.8,42.46-61.79s10.34,52.52,75.85,48.28Z"/><line class="cls-11" x1="1970.09" y1="1395.54" x2="1943.16" y2="1305.29"/></g><g id="HAND-2" data-name="HAND"><path class="cls-8" d="M2015.71,1234.93c-65.51,4.24-75.85-48.28-75.85-48.28l-42.46,61.79L1798,1364.93l-29.19-19.13,150.33-255.7a33.07,33.07,0,0,1,60.48,8.31Z"/><line class="cls-12" x1="1768.85" y1="1344.17" x2="1907.05" y2="1107.96"/><path class="cls-12" d="M2015.71,1234.93c-65.51,4.24-74.21-46.65-74.21-46.65l8-13.3"/><path class="cls-13" d="M1766.83,1343.81l-13.33,21.56a1.58,1.58,0,0,0,1.64,2.39l6-1.12a.52.52,0,0,1,.43.92l-8.75,7.25a1.16,1.16,0,0,1-1.87-.4l-1.62-3.94a1.31,1.31,0,0,0-2.52.66l1.25,10.19a12.25,12.25,0,0,0,16.26,8.84l13.1-4.9a24.59,24.59,0,0,0,10.64-7.74l10-12.59Z"/></g><g id="HEAD"><path class="cls-13" d="M1953,1074.21a33,33,0,0,0-33.8,15.89l-10.6,18-25.76-35.43c-4.8,2.63-9.79,3.55-14.92,2-14.25-4.34-14.86-23-14.86-43.73,0-9.44,4.79-17.06,11.36-22.09h0c.58,24.91,30.87,34.28,42.39,36.94Z"/><path class="cls-7" d="M1890.08,1082.66l-7.25-10s8.75-6,11.75-9.93Z"/><path class="cls-14" d="M1852.62,1034.64h2.77a8.06,8.06,0,0,1,8.06,8.06v11.51a1.73,1.73,0,0,0,1.73,1.72h3.12"/><path class="cls-7" d="M1875.64,1044.58a2.65,2.65,0,1,1-2.6-3.17A2.92,2.92,0,0,1,1875.64,1044.58Z"/><path class="cls-7" d="M1858.58,1044.58c0,1.44-.78,2.6-1.73,2.6s-1.73-1.16-1.73-2.6.77-2.59,1.73-2.59S1858.58,1043.15,1858.58,1044.58Z"/></g><g id="WATER"><path class="cls-6" d="M1678,1252.76v1.12a68.38,68.38,0,0,0-56,67.26v53.42a67.47,67.47,0,0,1-67.47,67.47h-6.25a24.22,24.22,0,0,0-24.22,24.22v36.58a67.48,67.48,0,0,1-67.47,67.48h-15.3a16.7,16.7,0,0,0-16.7,16.69v19.26a47.45,47.45,0,0,1-47.45,47.45h-84.8V1540.5a65.84,65.84,0,0,1,65.84-65.84h29.79a21.32,21.32,0,0,0,21.32-21.32v-26.09a65.83,65.83,0,0,1,65.84-65.83h24.55a21.33,21.33,0,0,0,21.32-21.32v-21.5a65.84,65.84,0,0,1,65.84-65.84Z"/><path class="cls-12" d="M1311.89,1558.47a65.83,65.83,0,0,1,65.84-65.83h24.21a26.9,26.9,0,0,0,26.9-26.9v-20.51a65.84,65.84,0,0,1,65.84-65.84h19.92a26,26,0,0,0,26-26v-16.86a65.84,65.84,0,0,1,65.84-65.84"/><path class="cls-12" d="M1333.14,1583a65.83,65.83,0,0,1,65.83-65.84h24.22a26.89,26.89,0,0,0,26.89-26.9v-20.5a65.84,65.84,0,0,1,65.84-65.84h19.93a26,26,0,0,0,26-26"/><circle class="cls-6" cx="1378.62" cy="1439.15" r="11.53"/><circle class="cls-6" cx="1249.01" cy="1608.02" r="19.86" transform="translate(-538.31 2583.32) rotate(-80.78)"/><circle class="cls-6" cx="1649.03" cy="1291.15" r="8.65"/></g></g><g id="MAN"><g id="LEGS-2" data-name="LEGS"><g id="SHOES-2" data-name="SHOES"><path class="cls-7" d="M1021,1648.37H922.45l2.94-29.51,37.25-11.48,1.68,3.7a21.15,21.15,0,0,0,19.25,12.4h11a25.47,25.47,0,0,1,24.33,17.94Z"/><line class="cls-15" x1="963.16" y1="1650.06" x2="1021" y2="1650.06"/><line class="cls-15" x1="922.45" y1="1650.06" x2="949.92" y2="1650.06"/><line class="cls-16" x1="968.33" y1="1625.38" x2="972.51" y2="1616.17"/><line class="cls-16" x1="980.21" y1="1627.23" x2="982.55" y2="1621.4"/><path class="cls-7" d="M705.09,1617.15l-4.82,31.21h98.56l-2.15-6.94a25.46,25.46,0,0,0-24.33-17.94H752.53a8.13,8.13,0,0,1-7.9-6.21h0Z"/><line class="cls-15" x1="740.99" y1="1650.06" x2="798.83" y2="1650.06"/><line class="cls-15" x1="700.27" y1="1650.06" x2="727.74" y2="1650.06"/><line class="cls-16" x1="747.93" y1="1628.92" x2="752.12" y2="1619.55"/><line class="cls-16" x1="758.04" y1="1628.92" x2="760.69" y2="1621.08"/></g><g id="LEGS-3" data-name="LEGS"><path class="cls-13" d="M816.69,1175.27l153,418.68a10.21,10.21,0,0,1-6.41,13.2l-37.18,12.21a14.73,14.73,0,0,1-17.87-7.6L764.75,1314.09l-10,289.41a15.24,15.24,0,0,1-15.24,14.72H702.94a15.25,15.25,0,0,1-15.25-14.84L678.54,1258c-1.44-31.12,5.78-60.27,20.94-87.29l22.33-29.72Z"/><polyline class="cls-11" points="767.54 1317.33 772.67 1237.41 785.04 1233.48"/></g></g><g id="VEST"><path class="cls-4" d="M820.81,939.15h69.07a14.24,14.24,0,0,1,14.24,14.24v13.48a0,0,0,0,1,0,0H806.57a0,0,0,0,1,0,0V953.39A14.24,14.24,0,0,1,820.81,939.15Z" transform="translate(364.86 -229.9) rotate(19.39)"/><polygon class="cls-6" points="883.04 969.7 811.83 1173.45 758.35 1154.9 829.63 950.42 883.04 969.7"/><path class="cls-4" d="M831.16,948.48l-71.68,203.71a26.33,26.33,0,0,1-33.58,16.09l-10-3.52a27.52,27.52,0,0,1-17.33-33.53l50-174.93a25.37,25.37,0,0,1,29.12-17.95Z"/><path class="cls-4" d="M812.93,1168.94,883,969.7l27.41,16.46a25.36,25.36,0,0,1,10.32,31.6L850.38,1186a17.48,17.48,0,0,1-24.93,8.35l-4.07-2.37A19.22,19.22,0,0,1,812.93,1168.94Z"/><line class="cls-17" x1="821.3" y1="1148.74" x2="860.08" y2="1162.39"/><line class="cls-17" x1="706.45" y1="1107.75" x2="766.85" y2="1129.01"/><line class="cls-17" x1="842.68" y1="1089.63" x2="881.46" y2="1103.28"/><line class="cls-17" x1="724.55" y1="1048.06" x2="786.6" y2="1069.9"/><line class="cls-17" x1="864.06" y1="1028.89" x2="907.76" y2="1044.27"/><line class="cls-17" x1="742.65" y1="986.16" x2="807.97" y2="1009.15"/></g><g id="RUBBISH"><rect class="cls-8" x="1071.57" y="1586.74" width="45.83" height="21.24" rx="4.6"/><polygon class="cls-4" points="1033.7 1653.71 1049.13 1603.15 1092.13 1653.76 1033.7 1653.71"/><rect class="cls-10" x="1069.28" y="1612.95" width="108.14" height="39.17" rx="19.59"/><circle class="cls-10" cx="1088.86" cy="1632.54" r="19.59"/><circle class="cls-10" cx="1083.28" cy="1632.54" r="5.36" transform="translate(-542.29 538.82) rotate(-22.5)"/><circle class="cls-7" cx="1062.6" cy="1602.19" r="4.61"/><circle class="cls-6" cx="1029.58" cy="1625.75" r="7.49" transform="translate(-789.22 2254.27) rotate(-76.72)"/></g><g id="RAKE"><path class="cls-11" d="M698.06,1102.77l448.22,510.69a38.62,38.62,0,0,1,9.17,25v10.64"/><path class="cls-11" d="M1116.42,1649.08l-.15-16.84a38.57,38.57,0,0,0-2.68-13.79l-31.95-81.13,95.63,75.53a38.6,38.6,0,0,1,14.68,30.29v5.94"/></g><g id="HANDS"><path class="cls-3" d="M671.19,1091.33l55.75-59.27,28-86.65-7.7-1.35a44.6,44.6,0,0,0-43,16.73L608.75,1054a45.16,45.16,0,0,0-1.5,63.1l81.67,75,32.27-39.69Z"/><path class="cls-8" d="M723.1,1201.45l-24.39-21.37,22.48-27.64,15.09-2.57a22,22,0,0,1,13.86,2.18l17.4,9.1-.93,1.78a7.54,7.54,0,0,1-8.46,3.83l-4.71-1.15a6.71,6.71,0,0,0-7.53,3.41h0a4.85,4.85,0,0,0,2.05,6.54l23.93,13.33a4.31,4.31,0,0,1-1.28,8l-37.55,7.26A11.75,11.75,0,0,1,723.1,1201.45Z"/><path class="cls-3" d="M926.18,1144.82l12.08-113.09c.24-13.47-5.2-21.8-12.71-25.76l-3-1.61-57.73,146.28,18.28,129.94,47.16-7.54Z"/><path class="cls-8" d="M929.23,1306.81l1.06-35.92-22.2-.18a35.69,35.69,0,0,0-23.59,8.64l-1.43,1.23a22,22,0,0,0-7.15,12.08l-4.08,19.2,2,.42a7.52,7.52,0,0,0,8.34-4.08l2.12-4.36a6.7,6.7,0,0,1,7.42-3.63h0a4.84,4.84,0,0,1,3.73,5.75l-1.27,27.21a5.16,5.16,0,0,0,8,4.55l15.61-10.31A25.59,25.59,0,0,0,929.23,1306.81Z"/></g><g id="HEAD-2" data-name="HEAD"><path id="NECK" class="cls-8" d="M889.89,954.13l-9.13,22.11c-3.73,8.76-14.35,13-23.6,9.31l-18.76-7.39c-9.14-3.6-13.45-13.48-9.65-22.09l10.44-23.57Z"/><g id="HEAD-3" data-name="HEAD"><path class="cls-8" d="M919.24,951a4.51,4.51,0,0,1-5.34,4.55l-6.63-1.26A21.23,21.23,0,0,1,876,962.53l-33.46-23.29a13.42,13.42,0,0,1-5.32-14.42l5.44-14.6c5.41-20.76,27.57-31.31,46.22-20.72L905.52,899a26.17,26.17,0,0,1,13,26.23Z"/><path class="cls-14" d="M849.43,922.13s6.73,3.67,3.3,10.88"/><line class="cls-14" x1="846.83" y1="928.44" x2="852.91" y2="926.11"/><path class="cls-7" d="M906,942.67a2.39,2.39,0,1,1,.38-3.37A2.39,2.39,0,0,1,906,942.67Z"/><path class="cls-7" d="M903.72,928.39h10.9a0,0,0,0,1,0,0v1.12a5.06,5.06,0,0,1-5.06,5.06h-11.7a0,0,0,0,1,0,0v-.32A5.86,5.86,0,0,1,903.72,928.39Z"/></g><path id="HAIR-2" data-name="HAIR" class="cls-7" d="M935.09,908.64c-3.39,8.59-13.68,12.57-23,8.9a18.87,18.87,0,0,1-9.76-8.62,16.5,16.5,0,0,1-13.74.6,16.83,16.83,0,0,1-4.77-2.85l.07.62a21.74,21.74,0,0,1-11.26,21.53l-4,2.15,0,0c-2.24,6.16-4.51,11.55,1.24,17l9.62,7.16,2.85-1a37.15,37.15,0,0,1,25,0L901,974.28a8.9,8.9,0,0,1-14.2,4.08l-27.49-23.14a10.69,10.69,0,0,1-3.39-11.08l4.77-12a12.07,12.07,0,0,0-6.15-15.37l-.25-.11A12.28,12.28,0,0,0,838,922.52L841,900.46a15.2,15.2,0,0,1,16.95-13.08,15,15,0,0,1,.53-1.65c3-7.6,12.12-11.12,20.33-7.87a16.9,16.9,0,0,1,6.77,4.86,16.48,16.48,0,0,1,14-.73,16.8,16.8,0,0,1,7.72,6.13,18.46,18.46,0,0,1,17.2-1.69C933.73,890.1,938.49,900.05,935.09,908.64Z"/></g></g></svg>